# xmcd CD database file
#
# Track frame offsets:
#	150
#	15675
#	31095
#	59885
#	88455
#	106002
#	123492
#	138188
#	152636
#	167927
#	183004
#	204271
#	225544
#	246115
#	266659
#	288361
#	310063
#	331168
#	352336
#
# Disc length: 4716 seconds
#
# Revision: 0
# Processed by: cddbd v1.5.2PL0 Copyright (c) Steve Scherf et al.
# Submitted via: CDex 1.70beta2
#
DISCID=0d126a13
DTITLE=Hal Leonard - Gerry Mulligan Classics Play Along Vol43
DYEAR=1900
DGENRE=Jazz
TTITLE0=Apple Core
TTITLE1=Apple Core Accompaniment Track
TTITLE2=A Ballad
TTITLE3=A Ballad Accompaniment Track
TTITLE4=Festive Minor
TTITLE5=Festive Minor Accompaniment Track
TTITLE6=Five Brothers
TTITLE7=Five Brothers Accompaniment Track
TTITLE8=Line for Lyons
TTITLE9=Line for Lyons Accompaniment Track
TTITLE10=Nights at the Turntable
TTITLE11=Nights at the Turntable Accompaniment Track
TTITLE12=North Atlantic Run
TTITLE13=North Atlantic Run Accompaniment Track
TTITLE14=Song for Strayhorn
TTITLE15=Song for Strayhorn Accompaniment Track
TTITLE16=Walkin' Shoes
TTITLE17=Walkin' Shoes Accompaniment Track
TTITLE18=Bb Tunng Notes
EXTD=
EXTT0=
EXTT1=
EXTT2=
EXTT3=
EXTT4=
EXTT5=
EXTT6=
EXTT7=
EXTT8=
EXTT9=
EXTT10=
EXTT11=
EXTT12=
EXTT13=
EXTT14=
EXTT15=
EXTT16=
EXTT17=
EXTT18=
PLAYORDER=
